<svg width="50" height="50" viewBox="0 0 50 50" fill="none" xmlns="http://www.w3.org/2000/svg">
<path fill-rule="evenodd" clip-rule="evenodd" d="M20.4652 11.5875L31.7412 16.6607C35.1689 18.2029 37.8666 19.4165 39.6966 20.5659C41.5042 21.7011 42.9167 23.047 42.9167 25C42.9167 26.953 41.5042 28.299 39.6966 29.4342C37.8666 30.5835 35.1689 31.7972 31.7413 33.3393L20.4652 38.4125C18.3702 39.3551 16.7403 40.0884 15.4677 40.5643C14.2224 41.03 13.1094 41.3358 12.1198 41.2282C9.71942 40.9672 7.65393 39.3212 7.15403 36.9973C6.94215 36.0124 7.23842 34.9106 7.66407 33.7661C8.10479 32.581 8.80526 31.0594 9.69763 29.1209L9.7217 29.0686C10.4191 27.5535 10.6875 26.9557 10.8245 26.3593C11.0305 25.4621 11.0305 24.5379 10.8245 23.6407C10.6875 23.0443 10.4191 22.4465 9.7217 20.9314L9.69763 20.8792C8.80526 18.9407 8.10479 17.4191 7.66407 16.234C7.23841 15.0894 6.94216 13.9876 7.15403 13.0027C7.65393 10.6789 9.71942 9.03287 12.1198 8.77185C13.1094 8.66423 14.2224 8.97006 15.4677 9.43574C16.7403 9.91163 18.3702 10.6449 20.4652 11.5875ZM14.5921 11.7774C13.3685 11.3198 12.7434 11.2188 12.3901 11.2572C10.9099 11.4181 9.84104 12.3992 9.59812 13.5285C9.55292 13.7386 9.58448 14.2257 10.0073 15.3626C10.4111 16.4483 11.071 17.8841 11.9926 19.886C12.0128 19.9299 12.0328 19.9732 12.0525 20.0161C12.6708 21.3589 13.0593 22.2024 13.2611 23.0812C13.5516 24.3466 13.5516 25.6534 13.2611 26.9188C13.0593 27.7977 12.6708 28.6412 12.0525 29.984C12.0328 30.0268 12.0128 30.0701 11.9926 30.114C11.071 32.116 10.4111 33.5517 10.0073 34.6375C9.58448 35.7744 9.55292 36.2614 9.59812 36.4716C9.84104 37.6008 10.9099 38.5819 12.3901 38.7428C12.7434 38.7812 13.3685 38.6802 14.5921 38.2227C15.7793 37.7787 17.335 37.0795 19.4846 36.1123L30.6144 31.1049C34.1649 29.5075 36.7019 28.3628 38.367 27.3171C40.0726 26.2459 40.4167 25.5501 40.4167 25C40.4167 24.45 40.0726 23.7541 38.367 22.683C36.7019 21.6372 34.1649 20.4925 30.6144 18.8951L19.4846 13.8877C17.335 12.9206 15.7793 12.2213 14.5921 11.7774Z" fill="#02040F"/>
</svg>
